<svg xmlns="http://www.w3.org/2000/svg" xmlns:xlink="http://www.w3.org/1999/xlink" width="268" height="268" viewBox="0 0 268 268">
  <defs>
    <clipPath id="clip-path">
      <rect id="Rectangle_222" data-name="Rectangle 222" width="233.611" height="103.327" fill="none"/>
    </clipPath>
  </defs>
  <g id="ahmedabad" transform="translate(-72 -56)">
    <rect id="Rectangle_1" data-name="Rectangle 1" width="268" height="268" transform="translate(72 56)" fill="#f1f6f7" opacity="0"/>
    <g id="Group_3" data-name="Group 3" transform="translate(89 138)">
      <rect id="Rectangle_2" data-name="Rectangle 2" width="22.238" height="22.238" transform="translate(11.997 62.842)" fill="#98275b"/>
      <rect id="Rectangle_3" data-name="Rectangle 3" width="21.934" height="6.349" transform="translate(12.301 88.137)" fill="#60235f"/>
      <rect id="Rectangle_4" data-name="Rectangle 4" width="21.934" height="1.506" transform="translate(12.301 85.683)" fill="#60235f"/>
      <rect id="Rectangle_5" data-name="Rectangle 5" width="21.934" height="0.947" transform="translate(12.301 87.191)" fill="#98275b"/>
      <rect id="Rectangle_6" data-name="Rectangle 6" width="21.934" height="0.603" transform="translate(12.301 85.08)" fill="#98275b"/>
      <rect id="Rectangle_7" data-name="Rectangle 7" width="28.507" height="2.047" transform="translate(5.728 60.797)" fill="#f7bf14"/>
      <path id="Path_1" data-name="Path 1" d="M33.772,43.673H1.182l9.888-3.541h22.7Z" transform="translate(0.464 15.744)" fill="#f7bf14"/>
      <rect id="Rectangle_8" data-name="Rectangle 8" width="22.701" height="1.609" transform="translate(11.534 54.266)" fill="#98275b"/>
      <rect id="Rectangle_9" data-name="Rectangle 9" width="33.554" height="1.381" transform="translate(0.681 59.416)" fill="#98275b"/>
      <rect id="Rectangle_10" data-name="Rectangle 10" width="6.531" height="6.783" transform="translate(6.041 87.703)" fill="#f7bf14"/>
      <rect id="Rectangle_11" data-name="Rectangle 11" width="6.531" height="1.609" transform="translate(6.041 85.08)" fill="#f7bf14"/>
      <rect id="Rectangle_12" data-name="Rectangle 12" width="5.988" height="1.012" transform="translate(6.313 86.691)" fill="#98275b"/>
      <rect id="Rectangle_13" data-name="Rectangle 13" width="5.988" height="0.645" transform="translate(6.313 84.435)" fill="#98275b"/>
      <rect id="Rectangle_14" data-name="Rectangle 14" width="5.987" height="2.158" transform="translate(6.313 62.842)" fill="#98275b"/>
      <rect id="Rectangle_15" data-name="Rectangle 15" width="5.381" height="19.435" transform="translate(6.616 65.002)" fill="#f7bf14"/>
      <rect id="Rectangle_16" data-name="Rectangle 16" width="9.199" height="13.546" transform="translate(18.076 70.386)" fill="#f7bf14"/>
      <rect id="Rectangle_17" data-name="Rectangle 17" width="14.082" height="0.551" transform="translate(15.634 69.834)" fill="#98275b"/>
      <rect id="Rectangle_18" data-name="Rectangle 18" width="14.082" height="0.955" transform="translate(15.634 68.925)" fill="#f7bf14"/>
      <rect id="Rectangle_19" data-name="Rectangle 19" width="13.476" height="2.633" transform="translate(15.938 65.681)" fill="#f7bf14"/>
      <rect id="Rectangle_20" data-name="Rectangle 20" width="12.741" height="0.611" transform="translate(16.305 68.314)" fill="#98275b"/>
      <g id="Group_2" data-name="Group 2" transform="translate(0 0)">
        <g id="Group_1" data-name="Group 1" clip-path="url(#clip-path)">
          <path id="Path_2" data-name="Path 2" d="M14.539,52.684c.092-.645.757-.92,1.609-1.15.3-.6,1.264-.781,1.264-.781s.966.184,1.264.781c.852.23,1.519.505,1.611,1.15a5.992,5.992,0,0,1,1.126,2.438v8.9h-8v-8.9a5.974,5.974,0,0,1,1.126-2.438" transform="translate(5.262 19.91)" fill="#98275b"/>
          <rect id="Rectangle_21" data-name="Rectangle 21" width="10.762" height="0.728" transform="translate(17.294 83.931)" fill="#60235f"/>
          <rect id="Rectangle_22" data-name="Rectangle 22" width="24.092" height="24.092" transform="translate(37.521 60.204)" fill="#98275b"/>
          <rect id="Rectangle_23" data-name="Rectangle 23" width="23.764" height="6.878" transform="translate(37.849 87.608)" fill="#60235f"/>
          <rect id="Rectangle_24" data-name="Rectangle 24" width="23.764" height="1.632" transform="translate(37.849 84.951)" fill="#60235f"/>
          <rect id="Rectangle_25" data-name="Rectangle 25" width="23.764" height="1.026" transform="translate(37.849 86.581)" fill="#98275b"/>
          <rect id="Rectangle_26" data-name="Rectangle 26" width="23.764" height="0.653" transform="translate(37.849 84.296)" fill="#98275b"/>
          <rect id="Rectangle_27" data-name="Rectangle 27" width="30.884" height="2.218" transform="translate(30.729 57.988)" fill="#f7bf14"/>
          <path id="Path_3" data-name="Path 3" d="M54.2,41.656H18.895l10.712-3.837H54.2Z" transform="translate(7.412 14.836)" fill="#f7bf14"/>
          <rect id="Rectangle_28" data-name="Rectangle 28" width="24.593" height="1.745" transform="translate(37.02 50.912)" fill="#98275b"/>
          <rect id="Rectangle_29" data-name="Rectangle 29" width="36.353" height="1.495" transform="translate(25.26 56.492)" fill="#98275b"/>
          <rect id="Rectangle_30" data-name="Rectangle 30" width="7.076" height="7.35" transform="translate(31.068 87.136)" fill="#f7bf14"/>
          <rect id="Rectangle_31" data-name="Rectangle 31" width="7.076" height="1.745" transform="translate(31.068 84.296)" fill="#f7bf14"/>
          <rect id="Rectangle_32" data-name="Rectangle 32" width="6.487" height="1.096" transform="translate(31.363 86.041)" fill="#98275b"/>
          <rect id="Rectangle_33" data-name="Rectangle 33" width="6.487" height="0.698" transform="translate(31.363 83.599)" fill="#98275b"/>
          <rect id="Rectangle_34" data-name="Rectangle 34" width="6.487" height="2.338" transform="translate(31.363 60.205)" fill="#98275b"/>
          <rect id="Rectangle_35" data-name="Rectangle 35" width="5.83" height="21.056" transform="translate(31.691 62.543)" fill="#f7bf14"/>
          <rect id="Rectangle_36" data-name="Rectangle 36" width="9.966" height="14.675" transform="translate(44.106 68.377)" fill="#f7bf14"/>
          <rect id="Rectangle_37" data-name="Rectangle 37" width="15.257" height="0.597" transform="translate(41.461 67.779)" fill="#98275b"/>
          <rect id="Rectangle_38" data-name="Rectangle 38" width="15.257" height="1.034" transform="translate(41.461 66.794)" fill="#f7bf14"/>
          <rect id="Rectangle_39" data-name="Rectangle 39" width="14.6" height="2.853" transform="translate(41.79 63.28)" fill="#f7bf14"/>
          <rect id="Rectangle_40" data-name="Rectangle 40" width="13.802" height="0.663" transform="translate(42.189 66.132)" fill="#98275b"/>
          <path id="Path_4" data-name="Path 4" d="M33.365,51.418c.1-.7.821-1,1.745-1.246.323-.647,1.37-.847,1.37-.847s1.046.2,1.37.847c.922.249,1.644.549,1.745,1.246a6.5,6.5,0,0,1,1.22,2.641V63.7h-8.67V54.059a6.481,6.481,0,0,1,1.221-2.641" transform="translate(12.61 19.35)" fill="#98275b"/>
          <rect id="Rectangle_41" data-name="Rectangle 41" width="11.659" height="0.788" transform="translate(43.26 83.052)" fill="#60235f"/>
          <rect id="Rectangle_42" data-name="Rectangle 42" width="26.278" height="26.278" transform="translate(66.876 57.094)" fill="#98275b"/>
          <rect id="Rectangle_43" data-name="Rectangle 43" width="25.92" height="7.503" transform="translate(67.234 86.983)" fill="#60235f"/>
          <rect id="Rectangle_44" data-name="Rectangle 44" width="25.92" height="1.781" transform="translate(67.234 84.083)" fill="#60235f"/>
          <rect id="Rectangle_45" data-name="Rectangle 45" width="25.92" height="1.119" transform="translate(67.234 85.864)" fill="#98275b"/>
          <rect id="Rectangle_46" data-name="Rectangle 46" width="25.92" height="0.711" transform="translate(67.234 83.372)" fill="#98275b"/>
          <rect id="Rectangle_47" data-name="Rectangle 47" width="33.685" height="2.418" transform="translate(59.469 54.675)" fill="#f7bf14"/>
          <path id="Path_5" data-name="Path 5" d="M77.757,39.278H39.248l11.685-4.185H77.757Z" transform="translate(15.397 13.767)" fill="#f7bf14"/>
          <rect id="Rectangle_48" data-name="Rectangle 48" width="26.824" height="1.902" transform="translate(66.33 46.958)" fill="#98275b"/>
          <rect id="Rectangle_49" data-name="Rectangle 49" width="39.651" height="1.63" transform="translate(53.503 53.045)" fill="#98275b"/>
          <rect id="Rectangle_50" data-name="Rectangle 50" width="7.717" height="8.017" transform="translate(59.839 86.47)" fill="#f7bf14"/>
          <rect id="Rectangle_51" data-name="Rectangle 51" width="7.717" height="1.902" transform="translate(59.839 83.372)" fill="#f7bf14"/>
          <rect id="Rectangle_52" data-name="Rectangle 52" width="7.074" height="1.196" transform="translate(60.159 85.274)" fill="#98275b"/>
          <rect id="Rectangle_53" data-name="Rectangle 53" width="7.074" height="0.76" transform="translate(60.159 82.612)" fill="#98275b"/>
          <rect id="Rectangle_54" data-name="Rectangle 54" width="7.074" height="2.551" transform="translate(60.159 57.094)" fill="#98275b"/>
          <rect id="Rectangle_55" data-name="Rectangle 55" width="6.359" height="22.967" transform="translate(60.517 59.643)" fill="#f7bf14"/>
          <rect id="Rectangle_56" data-name="Rectangle 56" width="10.87" height="16.006" transform="translate(74.06 66.007)" fill="#f7bf14"/>
          <rect id="Rectangle_57" data-name="Rectangle 57" width="16.639" height="0.652" transform="translate(71.174 65.355)" fill="#98275b"/>
          <rect id="Rectangle_58" data-name="Rectangle 58" width="16.639" height="1.128" transform="translate(71.174 64.282)" fill="#f7bf14"/>
          <rect id="Rectangle_59" data-name="Rectangle 59" width="15.925" height="3.112" transform="translate(71.532 60.448)" fill="#f7bf14"/>
          <rect id="Rectangle_60" data-name="Rectangle 60" width="15.055" height="0.723" transform="translate(71.967 63.559)" fill="#98275b"/>
          <path id="Path_6" data-name="Path 6" d="M55.031,49.926c.109-.76.9-1.087,1.9-1.359.354-.706,1.5-.923,1.5-.923s1.14.217,1.494.923c1.005.271,1.795.6,1.9,1.359a7.061,7.061,0,0,1,1.331,2.881V63.323H53.7V52.807a7.061,7.061,0,0,1,1.331-2.881" transform="translate(21.066 18.69)" fill="#98275b"/>
          <rect id="Rectangle_61" data-name="Rectangle 61" width="12.717" height="0.86" transform="translate(73.136 82.013)" fill="#60235f"/>
          <rect id="Rectangle_62" data-name="Rectangle 62" width="22.238" height="22.238" transform="translate(199.375 62.842)" fill="#98275b"/>
          <rect id="Rectangle_63" data-name="Rectangle 63" width="21.934" height="6.349" transform="translate(199.375 88.138)" fill="#60235f"/>
          <rect id="Rectangle_64" data-name="Rectangle 64" width="21.934" height="1.506" transform="translate(199.375 85.683)" fill="#60235f"/>
          <rect id="Rectangle_65" data-name="Rectangle 65" width="21.934" height="0.947" transform="translate(199.375 87.191)" fill="#98275b"/>
          <rect id="Rectangle_66" data-name="Rectangle 66" width="21.934" height="0.603" transform="translate(199.375 85.081)" fill="#98275b"/>
          <rect id="Rectangle_67" data-name="Rectangle 67" width="28.507" height="2.047" transform="translate(199.375 60.797)" fill="#f7bf14"/>
          <path id="Path_7" data-name="Path 7" d="M143.2,43.673h32.588L165.9,40.133H143.2Z" transform="translate(56.176 15.744)" fill="#f7bf14"/>
          <rect id="Rectangle_68" data-name="Rectangle 68" width="22.7" height="1.609" transform="translate(199.375 54.266)" fill="#98275b"/>
          <rect id="Rectangle_69" data-name="Rectangle 69" width="33.554" height="1.38" transform="translate(199.375 59.417)" fill="#98275b"/>
          <rect id="Rectangle_70" data-name="Rectangle 70" width="6.53" height="6.783" transform="translate(221.039 87.703)" fill="#f7bf14"/>
          <rect id="Rectangle_71" data-name="Rectangle 71" width="6.53" height="1.609" transform="translate(221.039 85.08)" fill="#f7bf14"/>
          <rect id="Rectangle_72" data-name="Rectangle 72" width="5.987" height="1.012" transform="translate(221.309 86.691)" fill="#98275b"/>
          <rect id="Rectangle_73" data-name="Rectangle 73" width="5.987" height="0.645" transform="translate(221.309 84.435)" fill="#98275b"/>
          <rect id="Rectangle_74" data-name="Rectangle 74" width="5.987" height="2.158" transform="translate(221.309 62.842)" fill="#98275b"/>
          <rect id="Rectangle_75" data-name="Rectangle 75" width="5.381" height="19.435" transform="translate(221.612 65.002)" fill="#f7bf14"/>
          <rect id="Rectangle_76" data-name="Rectangle 76" width="9.199" height="13.546" transform="translate(206.335 70.386)" fill="#f7bf14"/>
          <rect id="Rectangle_77" data-name="Rectangle 77" width="14.082" height="0.551" transform="translate(203.894 69.835)" fill="#98275b"/>
          <rect id="Rectangle_78" data-name="Rectangle 78" width="14.082" height="0.954" transform="translate(203.894 68.927)" fill="#f7bf14"/>
          <rect id="Rectangle_79" data-name="Rectangle 79" width="13.476" height="2.633" transform="translate(204.196 65.681)" fill="#f7bf14"/>
          <rect id="Rectangle_80" data-name="Rectangle 80" width="12.739" height="0.611" transform="translate(204.565 68.316)" fill="#98275b"/>
          <path id="Path_8" data-name="Path 8" d="M155.5,52.684c-.092-.645-.759-.92-1.609-1.15-.3-.6-1.266-.781-1.266-.781s-.966.184-1.264.781c-.852.23-1.519.505-1.609,1.15a5.96,5.96,0,0,0-1.128,2.438v8.9h8v-8.9a5.974,5.974,0,0,0-1.126-2.438" transform="translate(58.305 19.91)" fill="#98275b"/>
          <rect id="Rectangle_81" data-name="Rectangle 81" width="10.762" height="0.728" transform="translate(205.554 83.931)" fill="#60235f"/>
          <rect id="Rectangle_82" data-name="Rectangle 82" width="24.092" height="24.092" transform="translate(171.997 60.204)" fill="#98275b"/>
          <rect id="Rectangle_83" data-name="Rectangle 83" width="23.764" height="6.878" transform="translate(171.997 87.608)" fill="#60235f"/>
          <rect id="Rectangle_84" data-name="Rectangle 84" width="23.764" height="1.632" transform="translate(171.997 84.951)" fill="#60235f"/>
          <rect id="Rectangle_85" data-name="Rectangle 85" width="23.764" height="1.026" transform="translate(171.997 86.581)" fill="#98275b"/>
          <rect id="Rectangle_86" data-name="Rectangle 86" width="23.764" height="0.653" transform="translate(171.997 84.296)" fill="#98275b"/>
          <rect id="Rectangle_87" data-name="Rectangle 87" width="30.884" height="2.218" transform="translate(171.997 57.988)" fill="#f7bf14"/>
          <path id="Path_9" data-name="Path 9" d="M123.535,41.656h35.306l-10.712-3.837H123.535Z" transform="translate(48.462 14.836)" fill="#f7bf14"/>
          <rect id="Rectangle_88" data-name="Rectangle 88" width="24.593" height="1.745" transform="translate(171.997 50.912)" fill="#98275b"/>
          <rect id="Rectangle_89" data-name="Rectangle 89" width="36.353" height="1.495" transform="translate(171.997 56.492)" fill="#98275b"/>
          <rect id="Rectangle_90" data-name="Rectangle 90" width="7.076" height="7.35" transform="translate(195.466 87.136)" fill="#f7bf14"/>
          <rect id="Rectangle_91" data-name="Rectangle 91" width="7.076" height="1.745" transform="translate(195.466 84.296)" fill="#f7bf14"/>
          <rect id="Rectangle_92" data-name="Rectangle 92" width="6.487" height="1.096" transform="translate(195.76 86.041)" fill="#98275b"/>
          <rect id="Rectangle_93" data-name="Rectangle 93" width="6.487" height="0.698" transform="translate(195.76 83.599)" fill="#98275b"/>
          <rect id="Rectangle_94" data-name="Rectangle 94" width="6.487" height="2.338" transform="translate(195.76 60.205)" fill="#98275b"/>
          <rect id="Rectangle_95" data-name="Rectangle 95" width="5.83" height="21.056" transform="translate(196.089 62.543)" fill="#f7bf14"/>
          <rect id="Rectangle_96" data-name="Rectangle 96" width="9.965" height="14.675" transform="translate(179.537 68.377)" fill="#f7bf14"/>
          <rect id="Rectangle_97" data-name="Rectangle 97" width="15.257" height="0.597" transform="translate(176.892 67.779)" fill="#98275b"/>
          <rect id="Rectangle_98" data-name="Rectangle 98" width="15.257" height="1.034" transform="translate(176.892 66.794)" fill="#f7bf14"/>
          <rect id="Rectangle_99" data-name="Rectangle 99" width="14.6" height="2.853" transform="translate(177.22 63.28)" fill="#f7bf14"/>
          <rect id="Rectangle_100" data-name="Rectangle 100" width="13.802" height="0.663" transform="translate(177.619 66.132)" fill="#98275b"/>
          <path id="Path_10" data-name="Path 10" d="M136.866,51.418c-.1-.7-.821-1-1.745-1.246-.323-.647-1.37-.847-1.37-.847s-1.046.2-1.37.847c-.922.249-1.644.549-1.743,1.246a6.481,6.481,0,0,0-1.221,2.641V63.7h8.67V54.059a6.481,6.481,0,0,0-1.221-2.641" transform="translate(50.769 19.35)" fill="#98275b"/>
          <rect id="Rectangle_101" data-name="Rectangle 101" width="11.659" height="0.788" transform="translate(178.691 83.052)" fill="#60235f"/>
          <rect id="Rectangle_102" data-name="Rectangle 102" width="26.277" height="26.278" transform="translate(140.456 57.094)" fill="#98275b"/>
          <rect id="Rectangle_103" data-name="Rectangle 103" width="25.92" height="7.503" transform="translate(140.456 86.983)" fill="#60235f"/>
          <rect id="Rectangle_104" data-name="Rectangle 104" width="25.92" height="1.781" transform="translate(140.456 84.083)" fill="#60235f"/>
          <rect id="Rectangle_105" data-name="Rectangle 105" width="25.92" height="1.119" transform="translate(140.456 85.864)" fill="#98275b"/>
          <rect id="Rectangle_106" data-name="Rectangle 106" width="25.92" height="0.711" transform="translate(140.456 83.372)" fill="#98275b"/>
          <rect id="Rectangle_107" data-name="Rectangle 107" width="33.685" height="2.418" transform="translate(140.456 54.675)" fill="#f7bf14"/>
          <path id="Path_11" data-name="Path 11" d="M100.881,39.278H139.39L127.7,35.093H100.881Z" transform="translate(39.575 13.767)" fill="#f7bf14"/>
          <rect id="Rectangle_108" data-name="Rectangle 108" width="26.824" height="1.902" transform="translate(140.456 46.958)" fill="#98275b"/>
          <rect id="Rectangle_109" data-name="Rectangle 109" width="39.651" height="1.63" transform="translate(140.456 53.045)" fill="#98275b"/>
          <rect id="Rectangle_110" data-name="Rectangle 110" width="7.717" height="8.017" transform="translate(166.053 86.47)" fill="#f7bf14"/>
          <rect id="Rectangle_111" data-name="Rectangle 111" width="7.717" height="1.902" transform="translate(166.053 83.372)" fill="#f7bf14"/>
          <rect id="Rectangle_112" data-name="Rectangle 112" width="7.074" height="1.196" transform="translate(166.376 85.274)" fill="#98275b"/>
          <rect id="Rectangle_113" data-name="Rectangle 113" width="7.074" height="0.76" transform="translate(166.376 82.612)" fill="#98275b"/>
          <rect id="Rectangle_114" data-name="Rectangle 114" width="7.074" height="2.551" transform="translate(166.376 57.094)" fill="#98275b"/>
          <rect id="Rectangle_115" data-name="Rectangle 115" width="6.359" height="22.967" transform="translate(166.734 59.643)" fill="#f7bf14"/>
          <rect id="Rectangle_116" data-name="Rectangle 116" width="10.87" height="16.006" transform="translate(148.68 66.007)" fill="#f7bf14"/>
          <rect id="Rectangle_117" data-name="Rectangle 117" width="16.641" height="0.652" transform="translate(145.794 65.355)" fill="#98275b"/>
          <rect id="Rectangle_118" data-name="Rectangle 118" width="16.641" height="1.128" transform="translate(145.794 64.282)" fill="#f7bf14"/>
          <rect id="Rectangle_119" data-name="Rectangle 119" width="15.925" height="3.112" transform="translate(146.153 60.448)" fill="#f7bf14"/>
          <rect id="Rectangle_120" data-name="Rectangle 120" width="15.055" height="0.723" transform="translate(146.587 63.559)" fill="#98275b"/>
          <path id="Path_12" data-name="Path 12" d="M115.421,49.926c-.11-.76-.9-1.087-1.9-1.359-.354-.706-1.5-.923-1.5-.923s-1.14.217-1.494.923c-1.007.271-1.795.6-1.9,1.359a7.061,7.061,0,0,0-1.331,2.881V63.323h9.456V52.807a7.079,7.079,0,0,0-1.331-2.881" transform="translate(42.091 18.69)" fill="#98275b"/>
          <rect id="Rectangle_121" data-name="Rectangle 121" width="12.719" height="0.86" transform="translate(147.755 82.013)" fill="#60235f"/>
          <rect id="Rectangle_122" data-name="Rectangle 122" width="2.473" height="1.413" transform="translate(115.568 6.304)" fill="#f7bf14"/>
          <rect id="Rectangle_123" data-name="Rectangle 123" width="0.842" height="2.772" transform="translate(116.384)" fill="#f7bf14"/>
          <rect id="Rectangle_124" data-name="Rectangle 124" width="1.331" height="1.413" transform="translate(116.139 4.891)" fill="#98275b"/>
          <rect id="Rectangle_125" data-name="Rectangle 125" width="1.93" height="1.413" transform="translate(115.84 3.478)" fill="#f7bf14"/>
          <rect id="Rectangle_126" data-name="Rectangle 126" width="1.93" height="0.706" transform="translate(115.84 2.772)" fill="#98275b"/>
          <rect id="Rectangle_127" data-name="Rectangle 127" width="2.473" height="1.413" transform="translate(125.5 8.043)" fill="#f7bf14"/>
          <rect id="Rectangle_128" data-name="Rectangle 128" width="0.842" height="2.772" transform="translate(126.316 1.739)" fill="#f7bf14"/>
          <rect id="Rectangle_129" data-name="Rectangle 129" width="1.331" height="1.413" transform="translate(126.071 6.631)" fill="#98275b"/>
          <rect id="Rectangle_130" data-name="Rectangle 130" width="1.93" height="1.413" transform="translate(125.773 5.218)" fill="#f7bf14"/>
          <rect id="Rectangle_131" data-name="Rectangle 131" width="1.93" height="0.706" transform="translate(125.773 4.511)" fill="#98275b"/>
          <rect id="Rectangle_132" data-name="Rectangle 132" width="2.473" height="1.413" transform="translate(105.636 8.043)" fill="#f7bf14"/>
          <rect id="Rectangle_133" data-name="Rectangle 133" width="0.842" height="2.772" transform="translate(106.452 1.739)" fill="#f7bf14"/>
          <rect id="Rectangle_134" data-name="Rectangle 134" width="1.332" height="1.413" transform="translate(106.207 6.631)" fill="#98275b"/>
          <rect id="Rectangle_135" data-name="Rectangle 135" width="1.93" height="1.413" transform="translate(105.907 5.218)" fill="#f7bf14"/>
          <rect id="Rectangle_136" data-name="Rectangle 136" width="1.93" height="0.706" transform="translate(105.907 4.511)" fill="#98275b"/>
          <rect id="Rectangle_137" data-name="Rectangle 137" width="2.473" height="1.413" transform="translate(135.868 9.782)" fill="#f7bf14"/>
          <rect id="Rectangle_138" data-name="Rectangle 138" width="0.842" height="2.772" transform="translate(136.683 3.478)" fill="#f7bf14"/>
          <rect id="Rectangle_139" data-name="Rectangle 139" width="1.331" height="1.413" transform="translate(136.439 8.37)" fill="#98275b"/>
          <rect id="Rectangle_140" data-name="Rectangle 140" width="1.93" height="1.413" transform="translate(136.14 6.957)" fill="#f7bf14"/>
          <rect id="Rectangle_141" data-name="Rectangle 141" width="1.93" height="0.707" transform="translate(136.14 6.25)" fill="#98275b"/>
          <rect id="Rectangle_142" data-name="Rectangle 142" width="2.473" height="1.413" transform="translate(95.269 9.782)" fill="#f7bf14"/>
          <rect id="Rectangle_143" data-name="Rectangle 143" width="0.842" height="2.772" transform="translate(96.083 3.478)" fill="#f7bf14"/>
          <rect id="Rectangle_144" data-name="Rectangle 144" width="1.331" height="1.413" transform="translate(95.84 8.37)" fill="#98275b"/>
          <rect id="Rectangle_145" data-name="Rectangle 145" width="1.93" height="1.413" transform="translate(95.54 6.957)" fill="#f7bf14"/>
          <rect id="Rectangle_146" data-name="Rectangle 146" width="1.93" height="0.707" transform="translate(95.54 6.25)" fill="#98275b"/>
          <rect id="Rectangle_147" data-name="Rectangle 147" width="43.757" height="5.516" transform="translate(94.926 14.838)" fill="#98275b"/>
          <rect id="Rectangle_148" data-name="Rectangle 148" width="43.757" height="21.631" transform="translate(94.926 20.354)" fill="#60235f"/>
          <rect id="Rectangle_149" data-name="Rectangle 149" width="38" height="42.365" transform="translate(97.804 52.122)" fill="#60235f"/>
          <rect id="Rectangle_150" data-name="Rectangle 150" width="26.86" height="27.446" transform="translate(103.375 67.04)" fill="#f7bf14"/>
          <path id="Path_13" data-name="Path 13" d="M111.944,37.435V55.923h-4.253c-2.622-.436-3.064-4.493-3.971-6.45s-1.087-1.195-4.855-1.848-1.124-2.5-2.754-4.24-3.516-.036-4.457-2.9-1.594-1.831-1.594-1.831-.653-1.032-1.594,1.831-2.826,1.158-4.457,2.9,1.015,3.588-2.754,4.24-3.949-.109-4.855,1.848-1.351,6.015-3.972,6.45H68.175V37.435Z" transform="translate(26.744 14.686)" fill="#98275b"/>
          <rect id="Rectangle_151" data-name="Rectangle 151" width="9.619" height="2.228" transform="translate(90.744 92.259)" fill="#f7bf14"/>
          <rect id="Rectangle_152" data-name="Rectangle 152" width="8.678" height="2.228" transform="translate(91.216 89.214)" fill="#f7bf14"/>
          <rect id="Rectangle_153" data-name="Rectangle 153" width="7.88" height="2.229" transform="translate(91.614 86.172)" fill="#f7bf14"/>
          <rect id="Rectangle_154" data-name="Rectangle 154" width="7.88" height="6.196" transform="translate(91.614 79.16)" fill="#f7bf14"/>
          <rect id="Rectangle_155" data-name="Rectangle 155" width="7.88" height="6.196" transform="translate(91.614 72.148)" fill="#f7bf14"/>
          <rect id="Rectangle_156" data-name="Rectangle 156" width="7.88" height="5.436" transform="translate(91.614 65.898)" fill="#f7bf14"/>
          <rect id="Rectangle_157" data-name="Rectangle 157" width="8.678" height="0.816" transform="translate(91.216 91.443)" fill="#98275b"/>
          <rect id="Rectangle_158" data-name="Rectangle 158" width="8.678" height="0.814" transform="translate(91.216 88.399)" fill="#98275b"/>
          <rect id="Rectangle_159" data-name="Rectangle 159" width="8.678" height="0.816" transform="translate(91.216 85.356)" fill="#98275b"/>
          <rect id="Rectangle_160" data-name="Rectangle 160" width="8.678" height="0.816" transform="translate(91.216 78.344)" fill="#98275b"/>
          <rect id="Rectangle_161" data-name="Rectangle 161" width="8.678" height="0.814" transform="translate(91.216 71.334)" fill="#98275b"/>
          <rect id="Rectangle_162" data-name="Rectangle 162" width="8.678" height="0.816" transform="translate(91.216 65.083)" fill="#98275b"/>
          <rect id="Rectangle_163" data-name="Rectangle 163" width="6.746" height="3.048" transform="translate(92.182 62.035)" fill="#f7bf14"/>
          <rect id="Rectangle_164" data-name="Rectangle 164" width="7.428" height="0.458" transform="translate(91.841 61.577)" fill="#98275b"/>
          <rect id="Rectangle_165" data-name="Rectangle 165" width="6.746" height="3.048" transform="translate(92.182 58.529)" fill="#f7bf14"/>
          <rect id="Rectangle_166" data-name="Rectangle 166" width="7.428" height="0.458" transform="translate(91.841 58.071)" fill="#98275b"/>
          <rect id="Rectangle_167" data-name="Rectangle 167" width="6.746" height="3.048" transform="translate(92.182 55.025)" fill="#f7bf14"/>
          <rect id="Rectangle_168" data-name="Rectangle 168" width="8.678" height="2.445" transform="translate(91.216 52.122)" fill="#f7bf14"/>
          <rect id="Rectangle_169" data-name="Rectangle 169" width="7.428" height="0.458" transform="translate(91.841 54.567)" fill="#98275b"/>
          <rect id="Rectangle_170" data-name="Rectangle 170" width="9.619" height="2.228" transform="translate(133.245 92.259)" fill="#f7bf14"/>
          <rect id="Rectangle_171" data-name="Rectangle 171" width="8.678" height="2.228" transform="translate(133.717 89.214)" fill="#f7bf14"/>
          <rect id="Rectangle_172" data-name="Rectangle 172" width="7.88" height="2.229" transform="translate(134.115 86.172)" fill="#f7bf14"/>
          <rect id="Rectangle_173" data-name="Rectangle 173" width="7.88" height="6.196" transform="translate(134.115 79.16)" fill="#f7bf14"/>
          <rect id="Rectangle_174" data-name="Rectangle 174" width="7.88" height="6.196" transform="translate(134.115 72.148)" fill="#f7bf14"/>
          <rect id="Rectangle_175" data-name="Rectangle 175" width="7.88" height="5.436" transform="translate(134.115 65.898)" fill="#f7bf14"/>
          <rect id="Rectangle_176" data-name="Rectangle 176" width="8.678" height="0.816" transform="translate(133.717 91.443)" fill="#98275b"/>
          <rect id="Rectangle_177" data-name="Rectangle 177" width="8.678" height="0.814" transform="translate(133.717 88.399)" fill="#98275b"/>
          <rect id="Rectangle_178" data-name="Rectangle 178" width="8.678" height="0.816" transform="translate(133.717 85.356)" fill="#98275b"/>
          <rect id="Rectangle_179" data-name="Rectangle 179" width="8.678" height="0.816" transform="translate(133.717 78.344)" fill="#98275b"/>
          <rect id="Rectangle_180" data-name="Rectangle 180" width="8.678" height="0.814" transform="translate(133.717 71.334)" fill="#98275b"/>
          <rect id="Rectangle_181" data-name="Rectangle 181" width="8.678" height="0.816" transform="translate(133.717 65.083)" fill="#98275b"/>
          <rect id="Rectangle_182" data-name="Rectangle 182" width="6.746" height="3.048" transform="translate(134.683 62.035)" fill="#f7bf14"/>
          <rect id="Rectangle_183" data-name="Rectangle 183" width="7.428" height="0.458" transform="translate(134.342 61.577)" fill="#98275b"/>
          <rect id="Rectangle_184" data-name="Rectangle 184" width="6.746" height="3.048" transform="translate(134.683 58.529)" fill="#f7bf14"/>
          <rect id="Rectangle_185" data-name="Rectangle 185" width="7.428" height="0.458" transform="translate(134.342 58.071)" fill="#98275b"/>
          <rect id="Rectangle_186" data-name="Rectangle 186" width="6.746" height="3.048" transform="translate(134.683 55.025)" fill="#f7bf14"/>
          <rect id="Rectangle_187" data-name="Rectangle 187" width="8.678" height="2.445" transform="translate(133.717 52.122)" fill="#f7bf14"/>
          <rect id="Rectangle_188" data-name="Rectangle 188" width="7.428" height="0.458" transform="translate(134.342 54.567)" fill="#98275b"/>
          <rect id="Rectangle_189" data-name="Rectangle 189" width="58.37" height="2.418" transform="translate(87.62 49.702)" fill="#f7bf14"/>
          <path id="Path_14" data-name="Path 14" d="M71.153,31.521H115.8l11.684,4.185H59.467Z" transform="translate(23.328 12.366)" fill="#f7bf14"/>
          <rect id="Rectangle_190" data-name="Rectangle 190" width="44.648" height="1.902" transform="translate(94.481 41.986)" fill="#98275b"/>
          <rect id="Rectangle_191" data-name="Rectangle 191" width="70.301" height="1.63" transform="translate(81.655 48.072)" fill="#98275b"/>
          <rect id="Rectangle_192" data-name="Rectangle 192" width="25.164" height="26.522" transform="translate(104.223 67.963)" fill="#60235f"/>
          <rect id="Rectangle_193" data-name="Rectangle 193" width="31.74" height="0.76" transform="translate(100.934 20.355)" fill="#98275b"/>
          <rect id="Rectangle_194" data-name="Rectangle 194" width="2.501" height="2.101" transform="translate(110.264 39.884)" fill="#f7bf14"/>
          <rect id="Rectangle_195" data-name="Rectangle 195" width="2.789" height="2.645" transform="translate(110.12 28.978)" fill="#f7bf14"/>
          <path id="Path_15" data-name="Path 15" d="M79.631,23.207h1.63l.434,6.7H79.2Z" transform="translate(31.068 9.104)" fill="#f7bf14"/>
          <rect id="Rectangle_196" data-name="Rectangle 196" width="1.412" height="0.87" transform="translate(110.808 39.013)" fill="#98275b"/>
          <rect id="Rectangle_197" data-name="Rectangle 197" width="1.63" height="0.689" transform="translate(110.7 31.622)" fill="#98275b"/>
          <rect id="Rectangle_198" data-name="Rectangle 198" width="2.501" height="2.101" transform="translate(120.845 39.884)" fill="#f7bf14"/>
          <rect id="Rectangle_199" data-name="Rectangle 199" width="2.789" height="2.645" transform="translate(120.7 28.978)" fill="#f7bf14"/>
          <path id="Path_16" data-name="Path 16" d="M87.23,23.207h1.63l.436,6.7H86.8Z" transform="translate(34.049 9.104)" fill="#f7bf14"/>
          <rect id="Rectangle_200" data-name="Rectangle 200" width="1.413" height="0.87" transform="translate(121.388 39.013)" fill="#98275b"/>
          <rect id="Rectangle_201" data-name="Rectangle 201" width="1.63" height="0.689" transform="translate(121.28 31.622)" fill="#98275b"/>
          <rect id="Rectangle_202" data-name="Rectangle 202" width="2.499" height="2.101" transform="translate(131.425 39.884)" fill="#f7bf14"/>
          <rect id="Rectangle_203" data-name="Rectangle 203" width="2.789" height="2.645" transform="translate(131.28 28.978)" fill="#f7bf14"/>
          <path id="Path_17" data-name="Path 17" d="M94.829,23.207h1.63l.434,6.7h-2.5Z" transform="translate(37.03 9.104)" fill="#f7bf14"/>
          <rect id="Rectangle_204" data-name="Rectangle 204" width="1.413" height="0.87" transform="translate(131.968 39.013)" fill="#98275b"/>
          <rect id="Rectangle_205" data-name="Rectangle 205" width="1.63" height="0.689" transform="translate(131.86 31.622)" fill="#98275b"/>
          <rect id="Rectangle_206" data-name="Rectangle 206" width="2.501" height="2.101" transform="translate(99.684 39.884)" fill="#f7bf14"/>
          <rect id="Rectangle_207" data-name="Rectangle 207" width="2.789" height="2.645" transform="translate(99.54 28.978)" fill="#f7bf14"/>
          <path id="Path_18" data-name="Path 18" d="M72.032,23.207h1.63l.434,6.7H71.6Z" transform="translate(28.087 9.104)" fill="#f7bf14"/>
          <rect id="Rectangle_208" data-name="Rectangle 208" width="1.413" height="0.87" transform="translate(100.228 39.013)" fill="#98275b"/>
          <rect id="Rectangle_209" data-name="Rectangle 209" width="1.63" height="0.689" transform="translate(100.12 31.622)" fill="#98275b"/>
          <rect id="Rectangle_210" data-name="Rectangle 210" width="6.009" height="21.631" transform="translate(94.926 20.354)" fill="#f7bf14"/>
          <rect id="Rectangle_211" data-name="Rectangle 211" width="6.009" height="21.631" transform="translate(132.676 20.354)" fill="#f7bf14"/>
          <rect id="Rectangle_212" data-name="Rectangle 212" width="2.789" height="7.862" transform="translate(120.7 21.115)" fill="#f7bf14"/>
          <rect id="Rectangle_213" data-name="Rectangle 213" width="0.93" height="8.624" transform="translate(121.63 20.354)" fill="#f7bf14"/>
          <rect id="Rectangle_214" data-name="Rectangle 214" width="2.789" height="7.862" transform="translate(110.12 21.115)" fill="#f7bf14"/>
          <rect id="Rectangle_215" data-name="Rectangle 215" width="0.93" height="8.624" transform="translate(111.05 20.354)" fill="#f7bf14"/>
          <rect id="Rectangle_216" data-name="Rectangle 216" width="1.395" height="7.862" transform="translate(100.934 21.115)" fill="#98275b"/>
          <rect id="Rectangle_217" data-name="Rectangle 217" width="1.395" height="7.862" transform="translate(131.28 21.115)" fill="#98275b"/>
          <path id="Path_19" data-name="Path 19" d="M88.887,15.166v5.353s-.894-3.859-3.9-3.859S81.1,20.519,81.1,20.519V15.166Z" transform="translate(31.814 5.95)" fill="#98275b"/>
          <path id="Path_20" data-name="Path 20" d="M81.288,15.166v5.353s-.894-3.859-3.9-3.859S73.5,20.519,73.5,20.519V15.166Z" transform="translate(28.833 5.95)" fill="#98275b"/>
          <path id="Path_21" data-name="Path 21" d="M96.486,15.166v5.353s-.894-3.859-3.9-3.859S88.7,20.519,88.7,20.519V15.166Z" transform="translate(34.795 5.95)" fill="#98275b"/>
          <path id="Path_22" data-name="Path 22" d="M63.439,17.705a64.82,64.82,0,0,1,56.957,0v1.142a64.82,64.82,0,0,0-56.957,0Z" transform="translate(24.887 4.36)" fill="#f7bf14"/>
          <path id="Path_23" data-name="Path 23" d="M65.358,16.714a67.061,67.061,0,0,1,51.615,0V15.681a67.074,67.074,0,0,0-51.615,0Z" transform="translate(25.639 4.126)" fill="#98275b"/>
          <path id="Path_24" data-name="Path 24" d="M66.868,15.11a68.663,68.663,0,0,1,47.41,0V14.077a68.663,68.663,0,0,0-47.41,0Z" transform="translate(26.232 3.866)" fill="#f7bf14"/>
          <path id="Path_25" data-name="Path 25" d="M67.44,14.029a69.227,69.227,0,0,1,45.816,0v-.888a69.227,69.227,0,0,0-45.816,0Z" transform="translate(26.456 3.625)" fill="#98275b"/>
          <path id="Path_26" data-name="Path 26" d="M67.44,13.391a69.227,69.227,0,0,1,45.816,0V12.5a69.227,69.227,0,0,0-45.816,0Z" transform="translate(26.456 3.375)" fill="#f7bf14"/>
          <path id="Path_27" data-name="Path 27" d="M67.44,9.93a69.227,69.227,0,0,1,45.816,0V9.042a69.227,69.227,0,0,0-45.816,0Z" transform="translate(26.456 2.017)" fill="#f7bf14"/>
          <path id="Path_28" data-name="Path 28" d="M67.726,13.467a69.493,69.493,0,0,1,45.02,0V9.537a69.493,69.493,0,0,0-45.02,0Z" transform="translate(26.568 2.271)" fill="#98275b"/>
          <rect id="Rectangle_218" data-name="Rectangle 218" width="223.202" height="2.211" transform="translate(5.203 94.486)" fill="#98275b"/>
          <rect id="Rectangle_219" data-name="Rectangle 219" width="226.463" height="2.21" transform="translate(3.574 96.697)" fill="#f7bf14"/>
          <rect id="Rectangle_220" data-name="Rectangle 220" width="230.247" height="2.211" transform="translate(1.682 98.907)" fill="#98275b"/>
          <rect id="Rectangle_221" data-name="Rectangle 221" width="233.611" height="2.21" transform="translate(0 101.118)" fill="#f7bf14"/>
        </g>
      </g>
    </g>
  </g>
</svg>
