<svg xmlns="http://www.w3.org/2000/svg" width="229.511" height="200.973" viewBox="0 0 229.511 200.973">
  <g id="need-help" transform="translate(-179.966 -65.99)">
    <line id="Line_86" data-name="Line 86" y1="1.626" transform="translate(406.879 110.829)" fill="#474747"/>
    <g id="Group_6377" data-name="Group 6377" transform="translate(253.868 65.99)">
      <g id="Group_6348" data-name="Group 6348" transform="translate(20.958 85.677)">
        <path id="Path_6075" data-name="Path 6075" d="M498.8,329.458s-.618,76.174-3.475,98.234H483.593s-1.762-31.839-1.3-45.975l-10.622-52.259Z" transform="translate(-471.674 -329.458)" fill="#394e55"/>
      </g>
      <g id="Group_6349" data-name="Group 6349" transform="translate(5.935 85.677)">
        <path id="Path_6076" data-name="Path 6076" d="M425.474,329.458s.648,29.161,2.366,51.982c0,0,2.4,31.953,3.009,46.252h11.485s3.315-37.359,3.985-59.279,2.217-38.954,2.217-38.954Z" transform="translate(-425.474 -329.458)" fill="#394e55"/>
      </g>
      <g id="Group_6350" data-name="Group 6350" transform="translate(5.935 85.677)">
        <path id="Path_6077" data-name="Path 6077" d="M425.474,329.458h42.152S449.087,334.394,425.474,329.458Z" transform="translate(-425.474 -329.458)" fill="#1d272b"/>
      </g>
      <g id="Group_6351" data-name="Group 6351" transform="translate(12.1 183.911)">
        <path id="Path_6078" data-name="Path 6078" d="M452.066,631.54l.513,3.336s4.315,2.506,4.315,4.717h-6.5l-2.309-.532v.532h-3.657a33.182,33.182,0,0,1,.513-4.717l.257-3.336Z" transform="translate(-444.432 -631.54)" fill="#1d272b"/>
      </g>
      <g id="Group_6352" data-name="Group 6352" transform="translate(33.809 183.911)">
        <path id="Path_6079" data-name="Path 6079" d="M518.825,631.54l.513,3.336s11.8,2.506,11.8,4.717H517.157l-2.309-1.189v1.189h-3.657a33.178,33.178,0,0,1,.513-4.717l.257-3.336Z" transform="translate(-511.191 -631.54)" fill="#1d272b"/>
      </g>
      <g id="Group_6353" data-name="Group 6353" transform="translate(11.172 180.972)">
        <path id="Path_6080" data-name="Path 6080" d="M441.6,623h11.81l.042-.494H441.578Z" transform="translate(-441.578 -622.504)" fill="#1d272b"/>
      </g>
      <g id="Group_6354" data-name="Group 6354" transform="translate(32.724 180.972)">
        <path id="Path_6081" data-name="Path 6081" d="M507.882,623H520l.055-.494h-12.2Z" transform="translate(-507.854 -622.504)" fill="#1d272b"/>
      </g>
      <g id="Group_6355" data-name="Group 6355" transform="translate(6.583 89.302)">
        <path id="Path_6082" data-name="Path 6082" d="M435.129,340.607s-.814,6.142-7.662,10.544v.919S434.767,348.3,435.129,340.607Z" transform="translate(-427.467 -340.607)" fill="#1d272b"/>
      </g>
      <g id="Group_6356" data-name="Group 6356" transform="translate(40.006 89.302)">
        <path id="Path_6083" data-name="Path 6083" d="M530.248,340.607s.814,6.142,7.662,10.544l-.023.885S530.611,348.3,530.248,340.607Z" transform="translate(-530.248 -340.607)" fill="#1d272b"/>
      </g>
      <g id="Group_6357" data-name="Group 6357" transform="translate(4.582 22.6)">
        <path id="Path_6084" data-name="Path 6084" d="M462.03,146.135c-1.222-4.961-3.608-6.92-6.118-8.189-8.149-4.12-21.512-1.816-21.512-1.816s-6.568.52-8.695,8.69c0,0-7.342,38.924-3.038,53.745h42.151C467.408,183.036,463.976,156.5,462.03,146.135Z" transform="translate(-421.314 -135.488)" fill="#394e55"/>
      </g>
      <g id="Group_6358" data-name="Group 6358" transform="translate(5.459 53.778)">
        <path id="Path_6085" data-name="Path 6085" d="M424.011,231.364" transform="translate(-424.011 -231.364)" fill="#1d272b"/>
      </g>
      <g id="Group_6359" data-name="Group 6359" transform="translate(42.266 27.263)">
        <path id="Path_6086" data-name="Path 6086" d="M537.2,149.828s6.895,6.638,9.667,33.34c3.146,30.308.208,38.9.208,38.9H543.49s-.471-16.3-.889-37.812C542.6,184.255,540.3,161.043,537.2,149.828Z" transform="translate(-537.199 -149.828)" fill="#f2bc8b"/>
      </g>
      <g id="Group_6360" data-name="Group 6360" transform="translate(42.266 27.263)">
        <path id="Path_6087" data-name="Path 6087" d="M537.2,149.828s6.135,5.369,11.263,21.861c0,0-4.158,3.486-7.761,4.653Z" transform="translate(-537.199 -149.828)" fill="#394e55"/>
      </g>
      <g id="Group_6361" data-name="Group 6361" transform="translate(0.428 27.263)">
        <path id="Path_6088" data-name="Path 6088" d="M419.375,149.828s-9.212,6.415-10.57,33.225c-1.493,29.5,3.811,39.013,3.811,39.013l4.111-1.149s-.26-20.282-1.482-36.364C415.245,184.554,416.27,161.043,419.375,149.828Z" transform="translate(-408.54 -149.828)" fill="#f2bc8b"/>
      </g>
      <g id="Group_6362" data-name="Group 6362" transform="translate(0 27.263)">
        <path id="Path_6089" data-name="Path 6089" d="M418.487,149.828s-6.135,5.369-11.263,21.861c0,0,4.158,3.486,7.761,4.653Z" transform="translate(-407.224 -149.828)" fill="#394e55"/>
      </g>
      <g id="Group_6363" data-name="Group 6363" transform="translate(43.68 32.251)">
        <path id="Path_6090" data-name="Path 6090" d="M545.455,194.974s-1.768-20.017-3.91-29.809C541.545,165.165,547.4,193.5,545.455,194.974Z" transform="translate(-541.545 -165.165)" fill="#1d272b"/>
      </g>
      <g id="Group_6369" data-name="Group 6369" transform="translate(20.578 5.379)">
        <g id="Group_6364" data-name="Group 6364" transform="translate(1.25)">
          <path id="Path_6091" data-name="Path 6091" d="M475.037,82.531l8.1.549-.694,8.863-8.1.775Z" transform="translate(-474.348 -82.531)" fill="#f2bc8b"/>
        </g>
        <g id="Group_6365" data-name="Group 6365" transform="translate(0 5.41)">
          <path id="Path_6092" data-name="Path 6092" d="M481.517,111.261c-3.117,1.54-11.013-.043-11.013-.043,1.027-6.267,1.389-8.442,1.389-8.442l8.191-3.608A30.675,30.675,0,0,0,481.517,111.261Z" transform="translate(-470.504 -99.168)" fill="#f2bc8b"/>
        </g>
        <g id="Group_6366" data-name="Group 6366" transform="translate(2.087 0.074)">
          <path id="Path_6093" data-name="Path 6093" d="M477.888,82.76l6.989.475s.97,4.17.06,7.219c-.493,1.653-1.41,2.952-3.424,3.052a4.724,4.724,0,0,1-4.443-3.616C476.47,86.765,477.888,82.76,477.888,82.76Z" transform="translate(-476.922 -82.76)" fill="#f2bc8b"/>
        </g>
        <g id="Group_6367" data-name="Group 6367" transform="translate(5.228 9.13)">
          <path id="Path_6094" data-name="Path 6094" d="M490.883,110.607a3.446,3.446,0,0,1-4.3,1.421,4.191,4.191,0,0,0,4.722,2.68A26.5,26.5,0,0,1,490.883,110.607Z" transform="translate(-486.582 -110.607)" fill="#bc7b62"/>
        </g>
        <g id="Group_6368" data-name="Group 6368" transform="translate(0 17.061)">
          <path id="Path_6095" data-name="Path 6095" d="M481.517,135.437s-.006,5.011-3.094,5.967c-3.88,1.2-7.753-2.134-7.919-6.01C470.5,135.394,477.447,134.467,481.517,135.437Z" transform="translate(-470.504 -134.995)" fill="#f2bc8b"/>
        </g>
      </g>
      <g id="Group_6370" data-name="Group 6370" transform="translate(27.099 101.826)">
        <path id="Path_6096" data-name="Path 6096" d="M490.558,393.181l.727-14.064s1.386,14.94.18,18.528Z" transform="translate(-490.558 -379.117)" fill="#1d272b"/>
      </g>
      <g id="Group_6371" data-name="Group 6371" transform="translate(7.275 43.279)">
        <path id="Path_6097" data-name="Path 6097" d="M429.595,215.081s.3-4.5.363-5.544l1.91.63s3.1-7.553,3.788-11.087c0,0-1.211,7.761-3.031,11.78l-.988.208A27.131,27.131,0,0,1,429.595,215.081Z" transform="translate(-429.595 -199.08)" fill="#1d272b"/>
      </g>
      <g id="Group_6372" data-name="Group 6372" transform="translate(21.507 1.794)">
        <path id="Path_6098" data-name="Path 6098" d="M474.437,77.79s6.748.067,8.036-2.149l.2,1.075a1.513,1.513,0,0,0,.349-1.624c-.369-.974-4.527-3.538-6.421-3.584S472.148,73.79,474,80.5Z" transform="translate(-473.36 -71.507)" fill="#1d272b"/>
      </g>
      <g id="Group_6373" data-name="Group 6373" transform="translate(21.269 7.066)">
        <path id="Path_6099" data-name="Path 6099" d="M474.914,88.23A3.264,3.264,0,0,1,474.986,91c-2.4-.076-2.766-2.179-2-2.919.929-.9,1.925.147,1.925.147" transform="translate(-472.628 -87.718)" fill="#f2bc8b"/>
      </g>
      <g id="Group_6374" data-name="Group 6374" transform="translate(19.319)">
        <circle id="Ellipse_81" data-name="Ellipse 81" cx="2.188" cy="2.188" r="2.188" fill="#1d272b"/>
      </g>
      <g id="Group_6375" data-name="Group 6375" transform="translate(4.504 98.352)">
        <path id="Path_6100" data-name="Path 6100" d="M421.074,369.586s1.522,5.4,2.769,6.247a5.437,5.437,0,0,0,3.99.243c.277-.195.549-1.109.549-1.109s-1.219-4.576-3.2-6.53Z" transform="translate(-421.074 -368.437)" fill="#f2bc8b"/>
      </g>
      <g id="Group_6376" data-name="Group 6376" transform="translate(48.057 99.276)">
        <path id="Path_6101" data-name="Path 6101" d="M559.091,371.5s-.693,6.559-3.673,9.677a1.9,1.9,0,0,1-.383-1.271s-.2-8.406.472-8.406A7.247,7.247,0,0,1,559.091,371.5Z" transform="translate(-555.007 -371.278)" fill="#f2bc8b"/>
      </g>
    </g>
    <g id="Group_6408" data-name="Group 6408" transform="translate(297.458 67.421)">
      <g id="Group_6378" data-name="Group 6378" transform="translate(0 25.832)">
        <path id="Path_6102" data-name="Path 6102" d="M570.671,149.828s-6.549,8.578-11.614,31.584c0,0-2.746-10.925-14.383-25.8l-3.4,1.48s6.641,31.53,16.024,37.073S573.51,172,573.51,172Z" transform="translate(-541.27 -149.828)" fill="#a34d24"/>
      </g>
      <g id="Group_6403" data-name="Group 6403" transform="translate(20.98 3.177)">
        <g id="Group_6379" data-name="Group 6379" transform="translate(3.091 78.014)">
          <path id="Path_6103" data-name="Path 6103" d="M615.292,320.066s3.9,90.484,6.206,101.288h10.654l5.215-98.6Z" transform="translate(-615.292 -320.066)" fill="#639273"/>
        </g>
        <g id="Group_6380" data-name="Group 6380" transform="translate(22.932 78.591)">
          <path id="Path_6104" data-name="Path 6104" d="M698.75,321.839s-1.838,84.908-4.738,100.711h-11.6l-6.1-98.718Z" transform="translate(-676.305 -321.839)" fill="#639273"/>
        </g>
        <g id="Group_6381" data-name="Group 6381" transform="translate(3.225 81.068)">
          <path id="Path_6105" data-name="Path 6105" d="M615.7,329.458h42.152S639.318,334.394,615.7,329.458Z" transform="translate(-615.705 -329.458)" fill="#1d272b"/>
        </g>
        <g id="Group_6382" data-name="Group 6382" transform="translate(0 179.302)">
          <path id="Path_6106" data-name="Path 6106" d="M618.1,631.54l-.513,3.336s-11.8,2.506-11.8,4.717h13.985l2.309-1.189v1.189h3.657a33.174,33.174,0,0,0-.513-4.717l-.257-3.336Z" transform="translate(-605.787 -631.54)" fill="#1d272b"/>
        </g>
        <g id="Group_6383" data-name="Group 6383" transform="translate(29.035 179.302)">
          <path id="Path_6107" data-name="Path 6107" d="M702.707,631.54l.513,3.336s11.8,2.506,11.8,4.717H701.039L698.73,638.4v1.189h-3.657a33.174,33.174,0,0,1,.513-4.717l.256-3.336Z" transform="translate(-695.073 -631.54)" fill="#1d272b"/>
        </g>
        <g id="Group_6384" data-name="Group 6384" transform="translate(8.845 176.364)">
          <path id="Path_6108" data-name="Path 6108" d="M633.04,623H644.2l.022-.494h-11.24Z" transform="translate(-632.987 -622.504)" fill="#1d272b"/>
        </g>
        <g id="Group_6385" data-name="Group 6385" transform="translate(28.871 176.364)">
          <path id="Path_6109" data-name="Path 6109" d="M694.6,623h12.121l.055-.494h-12.2Z" transform="translate(-694.568 -622.504)" fill="#1d272b"/>
        </g>
        <g id="Group_6386" data-name="Group 6386" transform="translate(3.873 84.694)">
          <path id="Path_6110" data-name="Path 6110" d="M625.359,340.607s-.814,6.142-7.662,10.544v.919S625,348.3,625.359,340.607Z" transform="translate(-617.697 -340.607)" fill="#1d272b"/>
        </g>
        <g id="Group_6387" data-name="Group 6387" transform="translate(37.297 84.694)">
          <path id="Path_6111" data-name="Path 6111" d="M720.479,340.607s.814,6.142,7.662,10.544l-.023.885S720.842,348.3,720.479,340.607Z" transform="translate(-720.479 -340.607)" fill="#1d272b"/>
        </g>
        <g id="Group_6388" data-name="Group 6388" transform="translate(1.872 17.991)">
          <path id="Path_6112" data-name="Path 6112" d="M652.26,146.135c-1.222-4.961-3.608-6.92-6.118-8.189-8.149-4.12-21.512-1.816-21.512-1.816s-6.567.52-8.695,8.69c0,0-7.342,38.924-3.038,53.745h42.151C657.639,183.036,654.207,156.5,652.26,146.135Z" transform="translate(-611.545 -135.488)" fill="#639273"/>
        </g>
        <g id="Group_6389" data-name="Group 6389" transform="translate(2.749 49.169)">
          <path id="Path_6113" data-name="Path 6113" d="M614.242,231.364" transform="translate(-614.242 -231.364)" fill="#1d272b"/>
        </g>
        <g id="Group_6398" data-name="Group 6398" transform="translate(17.305 0)">
          <g id="Group_6397" data-name="Group 6397">
            <g id="Group_6390" data-name="Group 6390" transform="translate(1.844)">
              <rect id="Rectangle_3247" data-name="Rectangle 3247" width="10.916" height="8.682" transform="translate(0 10.916) rotate(-89.777)" fill="#a34d24"/>
            </g>
            <g id="Group_6391" data-name="Group 6391" transform="translate(0.331 5.139)">
              <path id="Path_6114" data-name="Path 6114" d="M660.02,109.162c3.332,1.646,11.7-.013,11.7-.013a52.168,52.168,0,0,1-1.631-13.183l-8.61.3A33.447,33.447,0,0,1,660.02,109.162Z" transform="translate(-660.02 -95.966)" fill="#a34d24"/>
            </g>
            <g id="Group_6392" data-name="Group 6392" transform="translate(9.24 1.613)">
              <path id="Path_6115" data-name="Path 6115" d="M687.849,85.622s1.109-1.073,2.063-.074c.79.824.307,3.055-2.259,3.033a3.49,3.49,0,0,1,.2-2.958" transform="translate(-687.415 -85.122)" fill="#a34d24"/>
            </g>
            <g id="Group_6393" data-name="Group 6393" transform="translate(0 1.576)">
              <path id="Path_6116" data-name="Path 6116" d="M661.411,85.509s-1.109-1.073-2.063-.074c-.79.824-.307,3.055,2.259,3.033a3.489,3.489,0,0,0-.2-2.958" transform="translate(-659.002 -85.009)" fill="#a34d24"/>
            </g>
            <g id="Group_6394" data-name="Group 6394" transform="translate(4.073 6.701)">
              <path id="Path_6117" data-name="Path 6117" d="M678.693,108.906s-.5-2.908-.577-4.224c-.054-.882-.132-1.887-.126-2.229.015-.833,0-1.431.007-1.686l-5.409,2.522-1.059,1.423S672.527,109.844,678.693,108.906Z" transform="translate(-671.528 -100.768)" fill="#75241d"/>
            </g>
            <g id="Group_6395" data-name="Group 6395" transform="translate(1.576 0.051)">
              <path id="Path_6118" data-name="Path 6118" d="M672.286,80.32l-3.92,4.7-3.92-4.7s-1.143,4.38-.264,7.666a4.656,4.656,0,0,0,4.185,3.517,4.553,4.553,0,0,0,4.248-3.517C673.492,84.7,672.286,80.32,672.286,80.32Z" transform="translate(-663.848 -80.32)" fill="#a34d24"/>
            </g>
            <g id="Group_6396" data-name="Group 6396" transform="translate(0.331 18.118)">
              <path id="Path_6119" data-name="Path 6119" d="M660.02,136.1l5.875,9.332,5.827-9.345A81.069,81.069,0,0,0,660.02,136.1Z" transform="translate(-660.02 -135.878)" fill="#a34d24"/>
            </g>
          </g>
        </g>
        <g id="Group_6399" data-name="Group 6399" transform="translate(19.673 21.572)">
          <path id="Path_6120" data-name="Path 6120" d="M666.285,146.5a13.525,13.525,0,0,0,7.639,0l-3.8,6.1Z" transform="translate(-666.285 -146.498)" fill="#fefaf7"/>
        </g>
        <g id="Group_6400" data-name="Group 6400" transform="translate(39.557 22.655)">
          <path id="Path_6121" data-name="Path 6121" d="M727.43,149.828s7.8,6.524,10.57,33.225c3.146,30.308-.121,39.013-.121,39.013h-4.158s-.471-16.3-.889-37.812C732.832,184.255,730.535,161.043,727.43,149.828Z" transform="translate(-727.43 -149.828)" fill="#a34d24"/>
        </g>
        <g id="Group_6401" data-name="Group 6401" transform="translate(39.557 22.655)">
          <path id="Path_6122" data-name="Path 6122" d="M727.43,149.828s6.135,5.369,11.263,21.861c0,0-4.158,3.486-7.761,4.653Z" transform="translate(-727.43 -149.828)" fill="#639273"/>
        </g>
        <g id="Group_6402" data-name="Group 6402" transform="translate(45.332 94.504)">
          <path id="Path_6123" data-name="Path 6123" d="M749.863,371.163s-1.275,8.43-4.116,12.1a1.714,1.714,0,0,1-.512-1.316c-.042-.97-.194-10.484.471-10.786A5.516,5.516,0,0,1,749.863,371.163Z" transform="translate(-745.189 -370.773)" fill="#a34d24"/>
        </g>
      </g>
      <g id="Group_6404" data-name="Group 6404" transform="translate(20.038 25.266)">
        <path id="Path_6124" data-name="Path 6124" d="M612.7,148.088s-5.658,6.326-9.808,18.24c0,0,5.936,5.41,8.647,7.073Z" transform="translate(-602.889 -148.088)" fill="#639273"/>
      </g>
      <g id="Group_6405" data-name="Group 6405" transform="translate(23.565 30.501)">
        <path id="Path_6125" data-name="Path 6125" d="M613.9,189.127s2-16.747,3.514-24.941C617.413,164.186,612.817,185.259,613.9,189.127Z" transform="translate(-613.735 -164.186)" fill="#1d272b"/>
      </g>
      <g id="Group_6406" data-name="Group 6406" transform="translate(61.654 30.501)">
        <path id="Path_6126" data-name="Path 6126" d="M735.15,193.944s-2.02-19.993-4.285-29.758C730.865,164.186,737.079,192.443,735.15,193.944Z" transform="translate(-730.865 -164.186)" fill="#1d272b"/>
      </g>
      <g id="Group_6407" data-name="Group 6407" transform="translate(39.577 0)">
        <path id="Path_6127" data-name="Path 6127" d="M672.533,71.98a5.17,5.17,0,0,0-4.73-1.386,3.56,3.56,0,0,0-3.689.832s-2.107.8-.585,3.893a3.845,3.845,0,0,0,.042-1.749,1.886,1.886,0,0,0,2.187,1.613,2.992,2.992,0,0,0,4.35-.036,2.4,2.4,0,0,0,2.145-1.542l-.007,1.608S673.433,73.019,672.533,71.98Z" transform="translate(-662.976 -70.393)" fill="#1d272b"/>
      </g>
    </g>
    <g id="Group_6437" data-name="Group 6437" transform="translate(275.673 75.055)">
      <g id="Group_6409" data-name="Group 6409" transform="translate(13.417 82.8)">
        <path id="Path_6128" data-name="Path 6128" d="M515.536,348.488s3.895,90.287,6.192,101.067h10.631l5.2-98.389Z" transform="translate(-515.536 -348.488)" fill="#393c54"/>
      </g>
      <g id="Group_6410" data-name="Group 6410" transform="translate(33.214 83.375)">
        <path id="Path_6129" data-name="Path 6129" d="M598.811,350.257s-1.834,84.723-4.727,100.491H582.5l-6.09-98.5Z" transform="translate(-576.415 -350.257)" fill="#393c54"/>
      </g>
      <g id="Group_6411" data-name="Group 6411" transform="translate(13.55 85.847)">
        <path id="Path_6130" data-name="Path 6130" d="M515.947,357.86h42.06S539.509,362.785,515.947,357.86Z" transform="translate(-515.947 -357.86)" fill="#1d272b"/>
      </g>
      <g id="Group_6412" data-name="Group 6412" transform="translate(31.254 101.544)">
        <path id="Path_6131" data-name="Path 6131" d="M570.387,406.128a10.785,10.785,0,0,0,6.516,0A5.06,5.06,0,0,1,570.387,406.128Z" transform="translate(-570.387 -406.128)" fill="#1d272b"/>
      </g>
      <g id="Group_6413" data-name="Group 6413" transform="translate(10.332 183.866)">
        <path id="Path_6132" data-name="Path 6132" d="M518.341,659.282l-.512,3.329s-11.778,2.5-11.778,4.707h13.955l2.3-1.186v1.186h3.649a33.1,33.1,0,0,0-.512-4.707l-.256-3.329Z" transform="translate(-506.051 -659.282)" fill="#1d272b"/>
      </g>
      <g id="Group_6414" data-name="Group 6414" transform="translate(39.304 183.866)">
        <path id="Path_6133" data-name="Path 6133" d="M602.76,659.282l.512,3.329s11.778,2.5,11.778,4.707H601.1l-2.3-1.186v1.186h-3.649a33.112,33.112,0,0,1,.512-4.707l.256-3.329Z" transform="translate(-595.142 -659.282)" fill="#1d272b"/>
      </g>
      <g id="Group_6415" data-name="Group 6415" transform="translate(19.158 180.934)">
        <path id="Path_6134" data-name="Path 6134" d="M533.244,650.759h11.14l.022-.493H533.192Z" transform="translate(-533.192 -650.266)" fill="#1d272b"/>
      </g>
      <g id="Group_6416" data-name="Group 6416" transform="translate(39.14 180.934)">
        <path id="Path_6135" data-name="Path 6135" d="M594.666,650.759h12.095l.055-.493H594.639Z" transform="translate(-594.639 -650.266)" fill="#1d272b"/>
      </g>
      <g id="Group_6417" data-name="Group 6417" transform="translate(14.197 89.465)">
        <path id="Path_6136" data-name="Path 6136" d="M525.581,368.984s-.812,6.129-7.645,10.521v.917S525.219,376.658,525.581,368.984Z" transform="translate(-517.936 -368.984)" fill="#1d272b"/>
      </g>
      <g id="Group_6418" data-name="Group 6418" transform="translate(47.547 89.465)">
        <path id="Path_6137" data-name="Path 6137" d="M620.492,368.984s.812,6.129,7.646,10.521l-.023.883S620.854,376.658,620.492,368.984Z" transform="translate(-620.492 -368.984)" fill="#1d272b"/>
      </g>
      <g id="Group_6419" data-name="Group 6419" transform="translate(11.802 22.908)">
        <path id="Path_6138" data-name="Path 6138" d="M551.6,174.937c-1.219-4.95-3.6-6.905-6.1-8.171-8.131-4.111-21.465-1.812-21.465-1.812s-6.553.518-8.676,8.671c0,0-8.294,39.875-3.031,53.627h42.059C557,212.555,553.538,185.281,551.6,174.937Z" transform="translate(-510.57 -164.314)" fill="#639273"/>
      </g>
      <g id="Group_6428" data-name="Group 6428" transform="translate(27.179 3.557)">
        <g id="Group_6427" data-name="Group 6427" transform="translate(0 0)">
          <g id="Group_6420" data-name="Group 6420" transform="translate(1.84)">
            <rect id="Rectangle_3248" data-name="Rectangle 3248" width="10.893" height="8.663" transform="translate(0 10.892) rotate(-89.777)" fill="#e19674"/>
          </g>
          <g id="Group_6421" data-name="Group 6421" transform="translate(0.33 6.527)">
            <path id="Path_6139" data-name="Path 6139" d="M558.874,138.045c3.325,1.643,11.677-.013,11.677-.013a52.046,52.046,0,0,1-1.627-13.154l-8.591.3A33.37,33.37,0,0,1,558.874,138.045Z" transform="translate(-558.874 -124.878)" fill="#e19674"/>
          </g>
          <g id="Group_6422" data-name="Group 6422" transform="translate(9.219 2.494)">
            <path id="Path_6140" data-name="Path 6140" d="M586.642,112.975s1.107-1.071,2.059-.074c.788.822.306,3.048-2.254,3.026a3.482,3.482,0,0,1,.2-2.952" transform="translate(-586.209 -112.476)" fill="#e19674"/>
          </g>
          <g id="Group_6423" data-name="Group 6423" transform="translate(0 2.458)">
            <path id="Path_6141" data-name="Path 6141" d="M560.263,112.863s-1.107-1.071-2.059-.074c-.788.822-.306,3.048,2.254,3.026a3.481,3.481,0,0,0-.2-2.952" transform="translate(-557.858 -112.364)" fill="#e19674"/>
          </g>
          <g id="Group_6424" data-name="Group 6424" transform="translate(4.064 6.686)">
            <path id="Path_6142" data-name="Path 6142" d="M577.28,133.517v0a37.441,37.441,0,0,1-.484-4.466c-.01-.35,0-.611,0-.883,0-.415,0-.774,0-1.115.015-.832,0-1.428.007-1.682l-5.4,2.517-1.057,1.42S571.128,134.453,577.28,133.517Z" transform="translate(-570.357 -125.367)" fill="#bc7b62"/>
          </g>
          <g id="Group_6425" data-name="Group 6425" transform="translate(1.573 0.051)">
            <path id="Path_6143" data-name="Path 6143" d="M571.113,104.964l-3.912,4.691-3.912-4.691s-1.14,4.37-.264,7.649a4.647,4.647,0,0,0,4.175,3.509,4.543,4.543,0,0,0,4.239-3.509C572.316,109.334,571.113,104.964,571.113,104.964Z" transform="translate(-562.694 -104.964)" fill="#e19674"/>
          </g>
          <g id="Group_6426" data-name="Group 6426" transform="translate(0.33 19.478)">
            <path id="Path_6144" data-name="Path 6144" d="M558.874,164.92l5.862,9.312,5.815-9.325A80.852,80.852,0,0,0,558.874,164.92Z" transform="translate(-558.874 -164.703)" fill="#e19674"/>
          </g>
        </g>
      </g>
      <g id="Group_6429" data-name="Group 6429" transform="translate(13.075 54.018)">
        <path id="Path_6145" data-name="Path 6145" d="M514.487,259.98" transform="translate(-514.487 -259.98)" fill="#1d272b"/>
      </g>
      <g id="Group_6430" data-name="Group 6430" transform="translate(49.415 27.182)">
        <path id="Path_6146" data-name="Path 6146" d="M644.844,186.047h-7.621s-3.932,22.918,1.611,23.941c-6.82-29.381-12.6-32.533-12.6-32.533.979,4.115,1.859,28.9,1.859,28.9,2.7,9.038,5.246,19.387,12.494,17.908C640.59,224.262,650.849,221.756,644.844,186.047Z" transform="translate(-626.237 -177.455)" fill="#fefaf7"/>
      </g>
      <g id="Group_6431" data-name="Group 6431" transform="translate(0 27.182)">
        <path id="Path_6147" data-name="Path 6147" d="M476.789,187.4h7.4s2.386,21.567-3.158,22.59c6.82-29.381,12.6-32.533,12.6-32.533-.979,4.115-1.859,28.9-1.859,28.9-2.7,9.038-5.246,19.387-12.494,17.908C479.276,224.262,469.938,221.352,476.789,187.4Z" transform="translate(-474.278 -177.455)" fill="#fefaf7"/>
      </g>
      <g id="Group_6432" data-name="Group 6432" transform="translate(11.433 23.241)">
        <path id="Path_6148" data-name="Path 6148" d="M525.513,165.347s-.893,70.987-5.667,101L509.8,261.172s-1.2-48.3.735-66.153,4.205-23.712,7.345-26.731A10.911,10.911,0,0,1,525.513,165.347Z" transform="translate(-509.436 -165.336)" fill="#fefaf7"/>
      </g>
      <g id="Group_6433" data-name="Group 6433" transform="translate(39.187 23.251)">
        <path id="Path_6149" data-name="Path 6149" d="M594.783,165.369s2.745,70.178,7.519,100.191l10.041-5.174s1.745-47.492-.192-65.345-2.765-20.927-7.523-26.517C604.627,168.524,601.3,165.359,594.783,165.369Z" transform="translate(-594.783 -165.369)" fill="#fefaf7"/>
      </g>
      <g id="Group_6434" data-name="Group 6434" transform="translate(20.571 23.51)">
        <path id="Path_6150" data-name="Path 6150" d="M541.535,213.735l-.277-.005c.046-2.165.213-5.694.389-9.43.265-5.6.539-11.384.439-13.289-.087-1.647-1.405-3.146-2.569-4.468-1.051-1.2-2.044-2.324-1.976-3.394.138-2.156,4.37-16.38,4.55-16.985l.266.079c-.044.148-4.4,14.8-4.539,16.923-.061.956.895,2.043,1.907,3.194,1.193,1.356,2.546,2.893,2.637,4.637.1,1.919-.173,7.712-.438,13.316C541.747,208.046,541.58,211.573,541.535,213.735Z" transform="translate(-537.538 -166.163)" fill="#393838"/>
      </g>
      <g id="Group_6435" data-name="Group 6435" transform="translate(41.001 23.497)">
        <path id="Path_6151" data-name="Path 6151" d="M602.2,213.712c-.012-.225-1.2-22.532-1.109-24.966.049-1.31,1.323-2.519,2.554-3.688,1.157-1.1,2.25-2.137,2.25-3.145,0-2.127-5.48-15.551-5.535-15.686l.257-.105c.227.555,5.556,13.61,5.556,15.791,0,1.126-1.135,2.2-2.337,3.346s-2.423,2.3-2.468,3.5c-.091,2.421,1.1,24.716,1.109,24.941Z" transform="translate(-600.363 -166.123)" fill="#393838"/>
      </g>
      <g id="Group_6436" data-name="Group 6436" transform="translate(28.269)">
        <path id="Path_6152" data-name="Path 6152" d="M561.959,100.086a6.384,6.384,0,0,0,.39-1.94s3.846,1.213,6.271-.45a11.661,11.661,0,0,1,1.629,2.7l.658-.479a5.676,5.676,0,0,0,.392-3.066,1.75,1.75,0,0,0-1.663-1.386,4.476,4.476,0,0,0-4.25-1.571c-3.049.277-3.4,1.571-3.849,2.217s-.431,2.437,0,3.805Z" transform="translate(-561.208 -93.868)" fill="#1d272b"/>
      </g>
      <path id="Path_6153" data-name="Path 6153" d="M617.9,465.012l7.831-1.689.079-2.386Z" transform="translate(-571.199 -341.57)" fill="#1d272b"/>
      <path id="Path_6154" data-name="Path 6154" d="M527.691,468.868l-6.629-3.416.087,1.708Z" transform="translate(-505.849 -344.617)" fill="#1d272b"/>
    </g>
    <g id="Group_6466" data-name="Group 6466" transform="translate(345.641 78.179)">
      <g id="Group_6438" data-name="Group 6438" transform="translate(35.94 0.985)">
        <path id="Path_6155" data-name="Path 6155" d="M800.175,106.5s1.909.957,2.463,6.777,1.109,8.591,1.109,8.591h-3.122S799.5,110.521,800.175,106.5Z" transform="translate(-799.96 -106.502)" fill="#1d272b"/>
      </g>
      <g id="Group_6439" data-name="Group 6439" transform="translate(25.545 1.361)">
        <path id="Path_6156" data-name="Path 6156" d="M770.808,107.659s-1.042,1.318-1.213,5.8a38.106,38.106,0,0,1-1.6,8.922l3.465.272S771.683,110.868,770.808,107.659Z" transform="translate(-767.992 -107.659)" fill="#1d272b"/>
      </g>
      <g id="Group_6440" data-name="Group 6440" transform="translate(46.929 25.329)">
        <path id="Path_6157" data-name="Path 6157" d="M834.031,181.364s4.3,7.008,9.616,34.172c0,0-1.653,1.652-.422-26.851l3.759-.393s7.145,23.641,1.509,33.25c-4.235,7.22-10.157,2.213-12.935-10.579S834.031,181.364,834.031,181.364Z" transform="translate(-833.75 -181.364)" fill="#f4daba"/>
      </g>
      <g id="Group_6441" data-name="Group 6441" transform="translate(0 24.094)">
        <path id="Path_6158" data-name="Path 6158" d="M709.549,177.564s-8.517,12.124-10.87,33.794c0,0,4.111,3.191-3.1-25.673h-5.046s-3.671,23.989,2.4,34.615c4.154,7.267,10.8-.052,14.051-12.732S709.549,177.564,709.549,177.564Z" transform="translate(-689.438 -177.564)" fill="#f4daba"/>
      </g>
      <g id="Group_6442" data-name="Group 6442" transform="translate(14.378 19.728)">
        <path id="Path_6159" data-name="Path 6159" d="M768.193,174.183c-1.031-4.68-3.042-6.528-5.158-7.725-6.87-3.887-18.134-1.713-18.134-1.713s-5.536.49-7.33,8.2c0,0-6.721,40.84-2.561,50.7,0,0,3.118,3.9,14.983,4.307s18.837-1.5,20.55-4.307C773.541,214.536,769.834,183.962,768.193,174.183Z" transform="translate(-733.652 -164.139)" fill="#394e55"/>
      </g>
      <g id="Group_6448" data-name="Group 6448" transform="translate(27.148 2.792)">
        <g id="Group_6443" data-name="Group 6443" transform="translate(0.972)">
          <path id="Path_6160" data-name="Path 6160" d="M784.014,112.058l-8.1.549.694,8.863,8.1.775Z" transform="translate(-775.911 -112.058)" fill="#f4daba"/>
        </g>
        <g id="Group_6444" data-name="Group 6444" transform="translate(0 5.41)">
          <path id="Path_6161" data-name="Path 6161" d="M772.922,140.788c3.117,1.54,11.014-.043,11.014-.043-1.027-6.267-1.389-8.442-1.389-8.442l-8.191-3.608A30.677,30.677,0,0,1,772.922,140.788Z" transform="translate(-772.922 -128.695)" fill="#f4daba"/>
        </g>
        <g id="Group_6445" data-name="Group 6445" transform="translate(0.522 0.074)">
          <path id="Path_6162" data-name="Path 6162" d="M781.966,112.287l-6.988.474s-.97,4.171-.06,7.22c.493,1.653,1.409,2.952,3.424,3.052a4.724,4.724,0,0,0,4.443-3.616C783.384,116.292,781.966,112.287,781.966,112.287Z" transform="translate(-774.528 -112.287)" fill="#f4daba"/>
        </g>
        <g id="Group_6446" data-name="Group 6446" transform="translate(1.063 9.13)">
          <path id="Path_6163" data-name="Path 6163" d="M776.612,140.134a3.446,3.446,0,0,0,4.3,1.421,4.191,4.191,0,0,1-4.722,2.68A26.558,26.558,0,0,0,776.612,140.134Z" transform="translate(-776.192 -140.134)" fill="#bc7b62"/>
        </g>
        <g id="Group_6447" data-name="Group 6447" transform="translate(0 17.061)">
          <path id="Path_6164" data-name="Path 6164" d="M772.922,164.964s.005,5.01,3.095,5.967c3.88,1.2,7.753-2.135,7.919-6.01C783.936,164.921,776.992,163.994,772.922,164.964Z" transform="translate(-772.922 -164.522)" fill="#f4daba"/>
        </g>
      </g>
      <g id="Group_6449" data-name="Group 6449" transform="translate(11.963 24.094)">
        <path id="Path_6165" data-name="Path 6165" d="M734.375,177.564a73.27,73.27,0,0,0-8.148,14.758,55.651,55.651,0,0,0,5.82,6.606Z" transform="translate(-726.227 -177.564)" fill="#394e55"/>
      </g>
      <g id="Group_6450" data-name="Group 6450" transform="translate(47.21 25.329)">
        <path id="Path_6166" data-name="Path 6166" d="M834.616,181.364a81.045,81.045,0,0,1,6.792,15.133s-2.633,3.24-5.059,4.21Z" transform="translate(-834.616 -181.364)" fill="#394e55"/>
      </g>
      <g id="Group_6451" data-name="Group 6451" transform="translate(15.686 79.233)">
        <path id="Path_6167" data-name="Path 6167" d="M737.726,347.124s-.431,76.519,1.232,101.51h12.2s4.465-34.6,3.91-50.479c0,0,4.754-49.844,4.754-51.018Z" transform="translate(-737.676 -347.124)" fill="#394e55"/>
      </g>
      <g id="Group_6452" data-name="Group 6452" transform="translate(31.366 79.233)">
        <path id="Path_6168" data-name="Path 6168" d="M785.892,347.188s5,60.194,15.53,101.447h11.094s-.427-33.306-4.307-52.189c0,0,1.641-35.225-2.413-49.321Z" transform="translate(-785.892 -347.124)" fill="#394e55"/>
      </g>
      <g id="Group_6453" data-name="Group 6453" transform="translate(15.737 79.233)">
        <path id="Path_6169" data-name="Path 6169" d="M737.83,347.124h35.533A98.71,98.71,0,0,1,737.83,347.124Z" transform="translate(-737.83 -347.124)" fill="#1d272b"/>
      </g>
      <g id="Group_6454" data-name="Group 6454" transform="translate(32.522 94.421)">
        <path id="Path_6170" data-name="Path 6170" d="M791.655,412.3l-2.024-18.473s-.95,17.847,1.489,24.124Z" transform="translate(-789.448 -393.831)" fill="#1d272b"/>
      </g>
      <g id="Group_6455" data-name="Group 6455" transform="translate(15.311 28.532)">
        <path id="Path_6171" data-name="Path 6171" d="M739.508,191.212s-2.393,15.92-2.987,23.13C736.521,214.342,737.064,200.8,739.508,191.212Z" transform="translate(-736.521 -191.212)" fill="#1d272b"/>
      </g>
      <g id="Group_6456" data-name="Group 6456" transform="translate(48.919 29.772)">
        <path id="Path_6172" data-name="Path 6172" d="M842.634,218.1s-1.841-18.252-2.763-23.078A107.234,107.234,0,0,1,842.634,218.1Z" transform="translate(-839.871 -195.026)" fill="#1d272b"/>
      </g>
      <g id="Group_6457" data-name="Group 6457" transform="translate(27.688)">
        <path id="Path_6173" data-name="Path 6173" d="M774.654,109.178a5.268,5.268,0,0,0,1.621-2.078s3.643,3.3,6.695,2.933l.531,1.893s.574-6.281,0-7.067-2.653-1.386-5.655-1.386S774.372,106.429,774.654,109.178Z" transform="translate(-774.584 -103.473)" fill="#1d272b"/>
      </g>
      <g id="Group_6458" data-name="Group 6458" transform="translate(34.84 4.479)">
        <path id="Path_6174" data-name="Path 6174" d="M796.921,117.757a3.263,3.263,0,0,0-.072,2.772c2.4-.076,2.766-2.179,2-2.919-.929-.9-1.925.147-1.925.147" transform="translate(-796.576 -117.245)" fill="#f4daba"/>
      </g>
      <g id="Group_6459" data-name="Group 6459" transform="translate(35.193 7.489)">
        <path id="Path_6175" data-name="Path 6175" d="M798.8,126.5a33.959,33.959,0,0,0-1.116,8.865h2.3S800.149,128.5,798.8,126.5Z" transform="translate(-797.66 -126.502)" fill="#1d272b"/>
      </g>
      <g id="Group_6460" data-name="Group 6460" transform="translate(27.235 7.885)">
        <path id="Path_6176" data-name="Path 6176" d="M780.564,129.117c-.891-1.315-3.309-1.378-3.4-1.38s-2.5-.2-3.524,1.007c-1.046,1.233-.406,4.461,3.2,4.979h.008C780.488,133.6,781.47,130.455,780.564,129.117Z" transform="translate(-773.19 -127.721)" fill="#6db4ac"/>
      </g>
      <g id="Group_6461" data-name="Group 6461" transform="translate(34.276 5.211)">
        <path id="Path_6177" data-name="Path 6177" d="M794.842,123.411a15.957,15.957,0,0,1,.81-3.912,5.305,5.305,0,0,0-.233,1.337s-.347,2-.393,2.922Z" transform="translate(-794.842 -119.499)" fill="#6db4ac"/>
      </g>
      <g id="Group_6462" data-name="Group 6462" transform="translate(6.985 180.743)">
        <path id="Path_6178" data-name="Path 6178" d="M723.217,659.282l-.512,3.331s-11.786,2.5-11.786,4.71h13.964l2.306-1.187v1.187h3.651a33.113,33.113,0,0,0-.513-4.71l-.256-3.331Z" transform="translate(-710.918 -659.282)" fill="#1d272b"/>
      </g>
      <g id="Group_6463" data-name="Group 6463" transform="translate(47.757 180.743)">
        <path id="Path_6179" data-name="Path 6179" d="M843.92,659.282l.513,3.331s2.412,2.5,2.412,4.71H836.3a33.111,33.111,0,0,1,.512-4.71l.256-3.331Z" transform="translate(-836.297 -659.282)" fill="#1d272b"/>
      </g>
      <g id="Group_6464" data-name="Group 6464" transform="translate(16.785 177.564)">
        <path id="Path_6180" data-name="Path 6180" d="M741.082,650h12.686l.055-.494H741.055Z" transform="translate(-741.055 -649.506)" fill="#1d272b"/>
      </g>
      <g id="Group_6465" data-name="Group 6465" transform="translate(46.104 177.564)">
        <path id="Path_6181" data-name="Path 6181" d="M831.338,650h11.708l-.012-.494H831.213Z" transform="translate(-831.213 -649.506)" fill="#1d272b"/>
      </g>
    </g>
    <g id="Group_6491" data-name="Group 6491" transform="translate(179.966 77.164)">
      <g id="Group_6467" data-name="Group 6467" transform="translate(79.106 23.163)">
        <path id="Path_6182" data-name="Path 6182" d="M423.229,171.582s12.282,11.379,16.129,34.867c0,0-3.392-2.1-.712-24.365h3.511s6.7,29.284-.369,32.949c-4.989,2.587-10.7-4.11-12.519-11.229S423.229,171.582,423.229,171.582Z" transform="translate(-423.229 -171.582)" fill="#e9bf9a"/>
      </g>
      <g id="Group_6468" data-name="Group 6468" transform="translate(32.805 26.344)">
        <path id="Path_6183" data-name="Path 6183" d="M297.714,181.364s-4.3,7.008-9.616,34.172c0,0,3.2,3.662,4.12-26.851H287.6s-12.3,25.558-3.71,36.275c5.236,6.531,11.041-.513,13.819-13.3S297.714,181.364,297.714,181.364Z" transform="translate(-280.846 -181.364)" fill="#e9bf9a"/>
      </g>
      <g id="Group_6469" data-name="Group 6469" transform="translate(56.929 78.61)">
        <path id="Path_6184" data-name="Path 6184" d="M383.481,342.09s6.371,66.307-8.319,106.359h-6.326s-2.113-41.3,1.937-56.118c0,0-13.6-37.569-15.743-45.993Z" transform="translate(-355.03 -342.09)" fill="#e9bf9a"/>
      </g>
      <g id="Group_6470" data-name="Group 6470" transform="translate(7.488 79.225)">
        <path id="Path_6185" data-name="Path 6185" d="M241.661,343.981s-3.756,14.311-8.041,49.648c0,0-13.717,8.237-30.626,37.8l3.881,4.065s36.865-25.87,42.915-38.474c5.984-12.467,17.124-43.5,19.9-51.985Z" transform="translate(-202.994 -343.981)" fill="#e9bf9a"/>
      </g>
      <g id="Group_6471" data-name="Group 6471" transform="translate(44.347 20.016)">
        <path id="Path_6186" data-name="Path 6186" d="M320.238,171.95c1.153-4.68,3.4-6.528,5.771-7.725,7.687-3.887,20.294-1.713,20.294-1.713s6.2.49,8.2,8.2c0,0,7.521,40.84,2.866,50.7,0,0-3.489,3.9-16.767,4.307s-21.079-1.5-23-4.307C314.254,212.3,318.4,181.729,320.238,171.95Z" transform="translate(-316.338 -161.906)" fill="#7e95ae"/>
      </g>
      <g id="Group_6472" data-name="Group 6472" transform="translate(85.829 49.428)">
        <path id="Path_6187" data-name="Path 6187" d="M443.9,252.352" transform="translate(-443.901 -252.352)" fill="#1d272b"/>
      </g>
      <g id="Group_6478" data-name="Group 6478" transform="translate(61.293 2.434)">
        <g id="Group_6473" data-name="Group 6473" transform="translate(1.309)">
          <path id="Path_6188" data-name="Path 6188" d="M372.846,107.837l8.116.295-.416,8.881-8.069,1.028Z" transform="translate(-372.477 -107.837)" fill="#e9bf9a"/>
        </g>
        <g id="Group_6474" data-name="Group 6474" transform="translate(0 5.826)">
          <path id="Path_6189" data-name="Path 6189" d="M379.464,137.846c-3.117,1.54-11.013-.044-11.013-.044,1.027-6.267,1.389-8.442,1.389-8.442l8.191-3.608A30.675,30.675,0,0,0,379.464,137.846Z" transform="translate(-368.45 -125.753)" fill="#e9bf9a"/>
        </g>
        <g id="Group_6475" data-name="Group 6475" transform="translate(1.994 0.039)">
          <path id="Path_6190" data-name="Path 6190" d="M375.382,107.958l7,.256s1.1,4.138.286,7.214c-.441,1.667-1.316,2.995-3.326,3.158a4.724,4.724,0,0,1-4.554-3.475C374.091,112.006,375.382,107.958,375.382,107.958Z" transform="translate(-374.581 -107.958)" fill="#e9bf9a"/>
        </g>
        <g id="Group_6476" data-name="Group 6476" transform="translate(4.856 8.957)">
          <path id="Path_6191" data-name="Path 6191" d="M388.04,135.381a3.682,3.682,0,0,1-4.657,1.318s.673,4.557,5.1,3.374A38.824,38.824,0,0,1,388.04,135.381Z" transform="translate(-383.383 -135.381)" fill="#bc7b62"/>
        </g>
        <g id="Group_6477" data-name="Group 6477" transform="translate(0 17.295)">
          <path id="Path_6192" data-name="Path 6192" d="M368.45,161.6s3.151,7.43,5.96,10.617a44.348,44.348,0,0,0,5.053-10.574S376.1,160.27,368.45,161.6Z" transform="translate(-368.45 -161.021)" fill="#e9bf9a"/>
        </g>
      </g>
      <g id="Group_6479" data-name="Group 6479" transform="translate(43.89 26.344)">
        <path id="Path_6193" data-name="Path 6193" d="M320.716,181.364a63.351,63.351,0,0,0-5.783,14.763s1.572,6.843,3.974,9.338Z" transform="translate(-314.933 -181.364)" fill="#7e95ae"/>
      </g>
      <g id="Group_6480" data-name="Group 6480" transform="translate(79.759 23.543)">
        <path id="Path_6194" data-name="Path 6194" d="M425.235,172.75s5.894,5.374,11.623,17.016c0,0-4.167,7.484-7.257,10.255Z" transform="translate(-425.235 -172.75)" fill="#7e95ae"/>
      </g>
      <g id="Group_6481" data-name="Group 6481" transform="translate(83.066 32.983)">
        <path id="Path_6195" data-name="Path 6195" d="M435.406,201.779s2.556,15.623,3.1,22.068C438.511,223.847,439.587,218.225,435.406,201.779Z" transform="translate(-435.406 -201.779)" fill="#1d272b"/>
      </g>
      <g id="Group_6482" data-name="Group 6482" transform="translate(62.373)">
        <path id="Path_6196" data-name="Path 6196" d="M372.145,105.484a19.738,19.738,0,0,0,4.734.3c1.369-.277,2.734-1.9,2.6-2.716l1.008.018s.164-2.4-1.961-2.176a7.118,7.118,0,0,0-4.47-.393C371.43,101,371.5,104.934,372.145,105.484Z" transform="translate(-371.772 -100.353)" fill="#1d272b"/>
      </g>
      <g id="Group_6483" data-name="Group 6483" transform="translate(70.079 2.71)">
        <path id="Path_6197" data-name="Path 6197" d="M395.469,108.688s.9,3,1.4,2.056a2.592,2.592,0,0,0-.393-2.038" transform="translate(-395.469 -108.688)" fill="#1d272b"/>
      </g>
      <g id="Group_6484" data-name="Group 6484" transform="translate(62.385 4.767)">
        <path id="Path_6198" data-name="Path 6198" d="M374.1,115.523s-1-1.045-1.925-.147c-.769.74-.4,2.843,2,2.919a3.265,3.265,0,0,0-.072-2.772" transform="translate(-371.809 -115.012)" fill="#e9bf9a"/>
      </g>
      <g id="Group_6485" data-name="Group 6485" transform="translate(69.909 176.991)">
        <path id="Path_6199" data-name="Path 6199" d="M395.422,649.392s-.147,2.658-.431,4.8c-.377,2.827,1.749,3.259,3.134,3.239s16.169-.02,16.169-.02a23.375,23.375,0,0,0-9.338-3.465c-4.478-.686-.867-5.283-.384-9.317l-9.1.286Z" transform="translate(-394.947 -644.626)" fill="#e9bf9a"/>
      </g>
      <g id="Group_6486" data-name="Group 6486" transform="translate(0 162.093)">
        <path id="Path_6200" data-name="Path 6200" d="M185.445,603.937s-2.144,1.578-3.975,2.719c-2.42,1.508-1.4,3.423-.5,4.479s10.3,12.461,10.3,12.461,1.176-2.187-2.635-9.047c-2.2-3.961,2.7-6.075,6.992-10.18l-5.474-5.559Z" transform="translate(-179.966 -598.81)" fill="#e9bf9a"/>
      </g>
      <g id="Group_6487" data-name="Group 6487" transform="translate(6.195 79.521)">
        <path id="Path_6201" data-name="Path 6201" d="M238.438,344.891s-3.791,21.14-7.419,48.67c0,0-15.186,11.182-32,37.1l8.13,9.886S238.479,415.322,249,401.463s12.35-53.6,12.35-53.6Z" transform="translate(-199.017 -344.891)" fill="#7e95ae"/>
      </g>
      <g id="Group_6488" data-name="Group 6488" transform="translate(57.75 79.521)">
        <path id="Path_6202" data-name="Path 6202" d="M385.186,344.891s3.877,17.305,3.877,43.914-7.577,58.322-7.577,58.322H367.257s-.023-35.663,4.212-53.358c0,0-7-20.624-13.913-47.93Z" transform="translate(-357.556 -344.891)" fill="#7e95ae"/>
      </g>
      <g id="Group_6489" data-name="Group 6489" transform="translate(65.568 97.589)">
        <path id="Path_6203" data-name="Path 6203" d="M381.6,411.774l2.207-11.323s.565,10.766-1.1,15.015Z" transform="translate(-381.596 -400.451)" fill="#1d272b"/>
      </g>
      <g id="Group_6490" data-name="Group 6490" transform="translate(45.616 79.521)">
        <path id="Path_6204" data-name="Path 6204" d="M320.242,344.891h39.764S342.709,349.206,320.242,344.891Z" transform="translate(-320.242 -344.891)" fill="#1d272b"/>
      </g>
    </g>
    <g id="Group_6492" data-name="Group 6492" transform="translate(214.38 110.829)">
      <rect id="Rectangle_3249" data-name="Rectangle 3249" width="192.499" height="65.77" transform="translate(0 0)" fill="#fff"/>
    </g>
    <g id="Group_6493" data-name="Group 6493" transform="translate(214.38 112.78)">
      <rect id="Rectangle_3250" data-name="Rectangle 3250" width="192.499" height="64.43" transform="translate(0 0)" fill="#bababa"/>
    </g>
    <g id="Group_6494" data-name="Group 6494" transform="translate(214.38 110.829)">
      <rect id="Rectangle_3251" data-name="Rectangle 3251" width="192.499" height="65.77" transform="translate(0 0)" fill="#fff"/>
    </g>
    <g id="Group_6495" data-name="Group 6495" transform="translate(219.53 110.259)">
      <path id="Path_6205" data-name="Path 6205" d="M301.63,202.694s1.186.173,1.533,1.974a6.679,6.679,0,0,0,1.455,3.326c.277.139,3.4-1,3.6-2.65a3.283,3.283,0,0,0-.831-2.65A7.82,7.82,0,0,0,301.63,202.694Z" transform="translate(-301.63 -202.124)" fill="#e9bf9a"/>
    </g>
    <g id="Group_6496" data-name="Group 6496" transform="translate(274.075 110.257)">
      <path id="Path_6206" data-name="Path 6206" d="M469.418,202.789a7.406,7.406,0,0,0,.256,3.055,3.92,3.92,0,0,0,3.7,1.779s1.52-.932.372-4.935C473.75,202.689,470.955,201.337,469.418,202.789Z" transform="translate(-469.362 -202.117)" fill="#e9bf9a"/>
    </g>
    <g id="Group_6497" data-name="Group 6497" transform="translate(344.985 109.397)">
      <path id="Path_6207" data-name="Path 6207" d="M694.222,200.47a1.691,1.691,0,0,0-1.489-.893c-1.062,0-3.973-1.2-5.313,4.62,0,0,2.726,2.033,4.62.416a5.435,5.435,0,0,0,1.848-3.7l.442-.011Z" transform="translate(-687.421 -199.475)" fill="#f4daba"/>
    </g>
    <g id="Group_6498" data-name="Group 6498" transform="translate(401 109.466)">
      <path id="Path_6208" data-name="Path 6208" d="M864.477,200.656s-.485-.89-1.04-.959-4.084.069-3.74,4.3c0,0,2.007,1.594,3.463,1.663,0,0,1.2-.23,1.663-4.608Z" transform="translate(-859.674 -199.686)" fill="#f4daba"/>
    </g>
    <g id="Group_6499" data-name="Group 6499" transform="translate(281.626 109.731)">
      <path id="Path_6209" data-name="Path 6209" d="M492.585,201.6v4.053a3.542,3.542,0,0,0,2.98,1.455s1.178-.624,1.455-1.386a13.864,13.864,0,0,0,.416-4.122,1.677,1.677,0,0,0-1.732-1.1C494.271,200.5,492.931,200.8,492.585,201.6Z" transform="translate(-492.585 -200.5)" fill="#e19674"/>
    </g>
    <g id="Group_6500" data-name="Group 6500" transform="translate(336.438 110.136)">
      <path id="Path_6210" data-name="Path 6210" d="M661.556,202.4a4.233,4.233,0,0,0-.357,2.334c.247,1.052.988,3.09,2.223,3.484s3.211-1.676,3.211-2.909V202.4A5.079,5.079,0,0,0,661.556,202.4Z" transform="translate(-661.14 -201.746)" fill="#e19674"/>
    </g>
    <g id="Group_6501" data-name="Group 6501" transform="translate(225.29 109.9)">
      <path id="Path_6211" data-name="Path 6211" d="M319.342,201.948a9,9,0,0,0,2.425-.867c.243-.347.173.867.173.867Z" transform="translate(-319.342 -201.019)" fill="#e9bf9a"/>
    </g>
    <g id="Group_6502" data-name="Group 6502" transform="translate(286.171 110.557)">
      <path id="Path_6212" data-name="Path 6212" d="M506.8,203.312s-.369,1.1-.185,1.443,1.085-.253,1.478-1.443A.888.888,0,0,0,506.8,203.312Z" transform="translate(-506.561 -203.04)" fill="#e19674"/>
    </g>
    <g id="Group_6503" data-name="Group 6503" transform="translate(335.65 110.599)">
      <path id="Path_6213" data-name="Path 6213" d="M658.719,203.4a2.378,2.378,0,0,0,.785,1.813,7.86,7.86,0,0,0,.416-1.848S659.851,202.9,658.719,203.4Z" transform="translate(-658.716 -203.168)" fill="#e19674"/>
    </g>
    <g id="Group_6504" data-name="Group 6504" transform="translate(400.135 109.444)">
      <path id="Path_6214" data-name="Path 6214" d="M859.452,200.178a14.444,14.444,0,0,1-2.312-.539c-.277-.2-.113.947.74,1.363h1.044A1.263,1.263,0,0,0,859.452,200.178Z" transform="translate(-857.016 -199.616)" fill="#f4daba"/>
    </g>
  </g>
</svg>
